<?xml version="1.0"?>
<svg width="500" height="500" xmlns="http://www.w3.org/2000/svg" xmlns:svg="http://www.w3.org/2000/svg" enable-background="new 0 0 500 500" version="1.1" xml:space="preserve">
 <g class="layer">
  <title>Layer 1</title>
  <g id="BACKGROUND"/>
  <g id="OBJECTS">
   <g id="svg_1">
    <path d="m442.37,162.39c6.62,-11.9 11.55,-24.72 11.52,-40.55c-0.09,-33 -26.21,-62.91 -58.05,-71.57c-31.86,-8.68 -67.18,2.03 -92.15,23.61c-24.97,21.57 -40.25,52.84 -46.91,85.16c-2.97,14.38 -4.37,29.12 -8.73,43.15c-4.35,14.04 -12.16,27.69 -24.78,35.24c-22.15,13.27 -50.3,3.93 -76.14,4.54c-50.19,1.17 -97.21,48.66 -109.69,95.23c-19.46,72.76 45.63,158.18 124.05,122.34c15.17,-6.93 27.55,-18.69 41.32,-28.14c13.79,-9.45 30.58,-16.81 46.86,-13.1c20.85,4.76 33.44,25.36 50.24,38.61c28.08,22.19 69.66,22.61 101.35,5.99c31.71,-16.62 53.97,-47.87 65.64,-81.7c4.61,-13.4 7.73,-28.09 3.56,-41.64c-3.61,-11.65 -12.12,-21.01 -20.3,-30.06c-22.62,-25.07 -50.15,-60.52 -36.92,-96.53c6.94,-18.84 19.72,-33.77 29.11,-50.6z" fill="#ADD8D6" id="svg_2"/>
   </g>
   <g id="svg_130">
    <path d="m68.57,421.7c1.31,-0.69 4.09,-5.21 4.5,-5.84c1.78,0.34 4.55,1.15 6.27,0.33c0.04,-0.02 0.09,-0.05 0.12,-0.09c0.03,-0.07 0,-0.14 -0.02,-0.21c-0.71,-1.69 -2.31,-3.23 -3.44,-4.66c-0.05,-0.07 1.22,-2.66 1.33,-2.89c0.47,-0.94 1.07,-1.87 1.06,-2.96c0,-0.11 -0.02,-0.23 -0.1,-0.32c-0.12,-0.12 -0.32,-0.08 -0.49,-0.04c-1.87,0.5 -3.71,1.07 -5.55,1.64c-1.47,-1.73 -3,-3.74 -4.88,-5.06c-0.1,-0.07 -0.21,-0.15 -0.34,-0.14c-0.24,0.01 -0.37,0.28 -0.42,0.52c-0.19,0.8 0.34,6.54 0.01,6.67c-2.05,0.81 -3.97,1.56 -5.84,2.81c-0.19,0.12 -0.38,0.25 -0.5,0.44c-0.13,0.19 -0.17,0.44 -0.06,0.63c0.07,0.13 0.19,0.21 0.31,0.28c0.93,0.57 1.95,0.97 3.01,1.21c0.32,0.07 3.3,0.5 3.3,0.64c0.15,2.16 0.68,4.33 1,6.48c0.04,0.22 0.08,0.46 0.25,0.59c0.12,0.1 0.28,0.08 0.48,-0.03z" fill="#FFFFFF" id="svg_131"/>
    <path d="m450.95,299.22c-0.49,-1.4 -4.57,-4.8 -5.13,-5.31c0.6,-1.7 1.79,-4.33 1.23,-6.15c-0.01,-0.05 -0.03,-0.1 -0.07,-0.13c-0.06,-0.04 -0.14,-0.03 -0.21,-0.01c-1.78,0.46 -3.53,1.82 -5.11,2.73c-0.07,0.04 -2.45,-1.59 -2.67,-1.74c-0.86,-0.59 -1.69,-1.32 -2.77,-1.47c-0.11,-0.01 -0.24,-0.02 -0.33,0.05c-0.14,0.1 -0.13,0.31 -0.11,0.48c0.22,1.93 0.52,3.82 0.82,5.73c-1.93,1.21 -4.14,2.43 -5.72,4.09c-0.08,0.1 -0.17,0.2 -0.18,0.32c-0.02,0.24 0.23,0.41 0.45,0.49c0.77,0.31 6.52,0.61 6.6,0.95c0.51,2.15 0.98,4.16 1.94,6.19c0.1,0.2 0.2,0.41 0.37,0.56c0.16,0.15 0.41,0.24 0.62,0.15c0.13,-0.05 0.22,-0.16 0.31,-0.27c0.7,-0.83 1.25,-1.78 1.64,-2.8c0.11,-0.3 0.96,-3.19 1.11,-3.18c2.15,0.17 4.38,-0.04 6.56,-0.05c0.22,0 0.46,-0.01 0.62,-0.16c0.1,-0.1 0.11,-0.27 0.03,-0.47z" fill="#FFFFFF" id="svg_132"/>
    <path d="m276.45,162.44c-0.41,-1.16 -3.78,-3.98 -4.24,-4.39c0.49,-1.41 1.48,-3.59 1.01,-5.1c-0.01,-0.04 -0.02,-0.08 -0.06,-0.11c-0.05,-0.03 -0.11,-0.02 -0.17,0c-1.47,0.38 -2.92,1.5 -4.23,2.26c-0.06,0.03 -2.03,-1.32 -2.21,-1.44c-0.71,-0.5 -1.4,-1.1 -2.29,-1.22c-0.1,-0.01 -0.2,-0.02 -0.28,0.04c-0.11,0.08 -0.11,0.25 -0.09,0.39c0.18,1.6 0.43,3.17 0.68,4.75c-1.6,1 -3.43,2.01 -4.73,3.39c-0.07,0.08 -0.15,0.16 -0.16,0.26c-0.02,0.2 0.19,0.34 0.37,0.41c0.64,0.26 5.41,0.51 5.47,0.79c0.42,1.78 0.81,3.44 1.61,5.12c0.08,0.17 0.16,0.34 0.3,0.47c0.14,0.12 0.34,0.19 0.51,0.12c0.11,-0.04 0.19,-0.13 0.27,-0.22c0.58,-0.7 1.03,-1.48 1.35,-2.32c0.1,-0.25 0.8,-2.64 0.92,-2.63c1.78,0.14 3.63,-0.04 5.43,-0.05c0.18,0 0.38,0 0.51,-0.13c0.09,-0.08 0.09,-0.22 0.03,-0.39z" fill="#FFFFFF" id="svg_133"/>
    <path d="m60.67,149.78c-0.93,-0.42 -4.55,-0.01 -5.06,0.03c-0.57,-1.1 -1.31,-2.94 -2.47,-3.52c-0.03,-0.02 -0.07,-0.04 -0.1,-0.03c-0.05,0.01 -0.08,0.06 -0.11,0.1c-0.61,1.1 -0.77,2.61 -1.06,3.82c-0.02,0.06 -1.95,0.47 -2.13,0.5c-0.7,0.15 -1.46,0.22 -2.04,0.68c-0.06,0.05 -0.12,0.11 -0.13,0.19c-0.02,0.11 0.09,0.21 0.18,0.28c1.06,0.8 2.15,1.55 3.23,2.31c-0.31,1.53 -0.75,3.2 -0.67,4.77c0,0.09 0.01,0.18 0.06,0.25c0.11,0.12 0.31,0.07 0.46,0.01c0.52,-0.24 3.4,-2.95 3.6,-2.83c1.31,0.77 2.53,1.49 3.99,1.97c0.14,0.05 0.3,0.1 0.45,0.09c0.15,-0.02 0.31,-0.1 0.37,-0.24c0.03,-0.09 0.02,-0.19 0.01,-0.29c-0.08,-0.74 -0.29,-1.46 -0.61,-2.13c-0.1,-0.2 -1.12,-1.99 -1.05,-2.06c1.1,-0.99 2.05,-2.19 3.08,-3.27c0.1,-0.11 0.21,-0.24 0.21,-0.39c0,-0.1 -0.08,-0.18 -0.21,-0.24z" fill="#FFFFFF" id="svg_134"/>
    <path d="m194.47,463.35c0.61,-1.22 0.25,-6.1 0.23,-6.79c1.51,-0.7 4.02,-1.59 4.86,-3.12c0.02,-0.05 0.04,-0.09 0.04,-0.14c-0.01,-0.06 -0.07,-0.11 -0.13,-0.14c-1.44,-0.88 -3.46,-1.17 -5.08,-1.63c-0.07,-0.03 -0.51,-2.64 -0.55,-2.88c-0.16,-0.95 -0.21,-1.97 -0.81,-2.78c-0.06,-0.08 -0.13,-0.17 -0.24,-0.18c-0.15,-0.03 -0.29,0.1 -0.39,0.23c-1.13,1.38 -2.19,2.8 -3.26,4.21c-2.04,-0.5 -4.26,-1.18 -6.37,-1.16c-0.12,0 -0.24,0.01 -0.33,0.08c-0.17,0.14 -0.12,0.41 -0.04,0.61c0.29,0.71 3.77,4.71 3.6,4.98c-1.1,1.71 -2.13,3.31 -2.85,5.25c-0.08,0.19 -0.15,0.39 -0.14,0.59c0.01,0.21 0.11,0.43 0.3,0.51c0.11,0.05 0.25,0.05 0.38,0.04c1,-0.07 1.97,-0.32 2.89,-0.71c0.28,-0.12 2.74,-1.4 2.82,-1.3c1.27,1.53 2.83,2.87 4.23,4.3c0.14,0.15 0.31,0.3 0.51,0.31c0.14,0 0.25,-0.1 0.33,-0.28z" fill="#FFFFFF" id="svg_135"/>
    <path d="m210.69,331.27c0.63,-0.8 1.08,-4.41 1.17,-4.91c1.2,-0.29 3.16,-0.57 4,-1.56c0.02,-0.03 0.05,-0.06 0.05,-0.1c0,-0.04 -0.04,-0.09 -0.07,-0.12c-0.92,-0.85 -2.35,-1.36 -3.46,-1.94c-0.05,-0.02 0.01,-2 0.02,-2.18c0.02,-0.71 0.13,-1.47 -0.18,-2.14c-0.03,-0.07 -0.07,-0.14 -0.15,-0.17c-0.11,-0.05 -0.22,0.03 -0.31,0.11c-1.04,0.84 -2.02,1.71 -3.01,2.59c-1.41,-0.67 -2.93,-1.49 -4.47,-1.79c-0.08,-0.01 -0.18,-0.03 -0.25,0.01c-0.15,0.08 -0.15,0.28 -0.12,0.44c0.11,0.56 2.05,3.99 1.89,4.16c-1.05,1.09 -2.04,2.1 -2.86,3.41c-0.08,0.13 -0.16,0.26 -0.18,0.41c-0.03,0.16 0.01,0.33 0.14,0.42c0.08,0.05 0.18,0.07 0.27,0.08c0.74,0.1 1.49,0.06 2.22,-0.09c0.22,-0.05 2.2,-0.62 2.24,-0.53c0.7,1.3 1.65,2.51 2.45,3.76c0.08,0.13 0.18,0.26 0.33,0.3c0.09,0.02 0.19,-0.04 0.28,-0.16z" fill="#FFFFFF" id="svg_136"/>
    <path d="m428.93,82.1c0.63,-0.8 1.08,-4.41 1.17,-4.92c1.2,-0.28 3.16,-0.56 4,-1.56c0.02,-0.03 0.05,-0.06 0.05,-0.09c0,-0.05 -0.04,-0.09 -0.07,-0.12c-0.92,-0.86 -2.35,-1.37 -3.46,-1.94c-0.05,-0.03 0.01,-2 0.02,-2.18c0.02,-0.72 0.13,-1.47 -0.18,-2.14c-0.03,-0.07 -0.08,-0.15 -0.15,-0.18c-0.11,-0.04 -0.23,0.04 -0.32,0.11c-1.03,0.85 -2.01,1.72 -3,2.6c-1.41,-0.67 -2.93,-1.5 -4.47,-1.79c-0.09,-0.02 -0.18,-0.03 -0.25,0.01c-0.15,0.07 -0.15,0.28 -0.12,0.44c0.1,0.56 2.05,3.99 1.89,4.16c-1.05,1.09 -2.04,2.1 -2.86,3.4c-0.08,0.13 -0.16,0.27 -0.18,0.42c-0.03,0.15 0.01,0.32 0.14,0.41c0.08,0.06 0.18,0.08 0.27,0.09c0.74,0.09 1.49,0.06 2.22,-0.09c0.22,-0.05 2.2,-0.62 2.24,-0.54c0.7,1.31 1.65,2.51 2.45,3.77c0.08,0.12 0.18,0.26 0.33,0.3c0.09,0.02 0.19,-0.04 0.28,-0.16z" fill="#FFFFFF" id="svg_137"/>
    <path d="m441.96,103.52c0.73,0.12 3.21,-0.86 3.57,-0.99c0.61,0.67 1.48,1.83 2.42,2.02c0.02,0 0.05,0.01 0.07,0c0.04,-0.02 0.05,-0.06 0.06,-0.09c0.22,-0.9 0.04,-2 0.02,-2.91c0,-0.04 1.28,-0.7 1.4,-0.76c0.47,-0.24 0.99,-0.43 1.31,-0.87c0.04,-0.05 0.07,-0.1 0.06,-0.16c-0.01,-0.08 -0.1,-0.13 -0.18,-0.16c-0.91,-0.37 -1.82,-0.69 -2.73,-1.01c-0.07,-1.15 -0.08,-2.41 -0.43,-3.51c-0.02,-0.06 -0.05,-0.12 -0.1,-0.16c-0.1,-0.06 -0.23,0.01 -0.32,0.09c-0.32,0.26 -1.84,2.73 -2,2.68c-1.07,-0.29 -2.07,-0.57 -3.2,-0.63c-0.11,0 -0.23,-0.01 -0.33,0.03c-0.11,0.04 -0.21,0.13 -0.22,0.24c-0.01,0.07 0.02,0.14 0.04,0.2c0.21,0.51 0.49,0.98 0.85,1.39c0.1,0.13 1.17,1.19 1.13,1.25c-0.59,0.91 -1.02,1.95 -1.55,2.91c-0.05,0.1 -0.1,0.21 -0.07,0.31c0.02,0.08 0.09,0.12 0.2,0.13z" fill="#FFFFFF" id="svg_138"/>
    <path d="m46.45,371.35c0.73,0.12 3.21,-0.87 3.57,-0.99c0.61,0.67 1.48,1.83 2.42,2.02c0.02,0 0.05,0 0.07,-0.01c0.03,-0.01 0.05,-0.05 0.06,-0.09c0.22,-0.89 0.04,-1.99 0.02,-2.9c0,-0.04 1.29,-0.7 1.4,-0.76c0.47,-0.24 0.99,-0.43 1.32,-0.87c0.03,-0.05 0.06,-0.1 0.06,-0.16c-0.02,-0.09 -0.11,-0.13 -0.19,-0.16c-0.9,-0.37 -1.81,-0.69 -2.72,-1.01c-0.08,-1.15 -0.08,-2.41 -0.44,-3.51c-0.02,-0.06 -0.04,-0.12 -0.1,-0.16c-0.1,-0.06 -0.23,0.01 -0.32,0.08c-0.32,0.27 -1.83,2.74 -2,2.69c-1.07,-0.29 -2.07,-0.57 -3.2,-0.63c-0.11,0 -0.23,-0.01 -0.33,0.03c-0.11,0.04 -0.2,0.12 -0.22,0.24c-0.01,0.07 0.02,0.14 0.05,0.2c0.2,0.51 0.48,0.98 0.84,1.39c0.11,0.13 1.17,1.19 1.14,1.25c-0.59,0.91 -1.03,1.95 -1.55,2.91c-0.06,0.1 -0.11,0.21 -0.08,0.31c0.02,0.07 0.09,0.11 0.2,0.13z" fill="#FFFFFF" id="svg_139"/>
    <path d="m416.65,270.84c0.63,-0.8 1.09,-4.41 1.17,-4.91c1.2,-0.29 3.16,-0.57 4,-1.56c0.03,-0.03 0.05,-0.06 0.05,-0.1c0,-0.05 -0.04,-0.09 -0.07,-0.12c-0.92,-0.85 -2.35,-1.36 -3.46,-1.94c-0.05,-0.02 0.01,-2 0.02,-2.18c0.02,-0.71 0.13,-1.47 -0.18,-2.14c-0.03,-0.07 -0.07,-0.14 -0.15,-0.17c-0.11,-0.05 -0.22,0.03 -0.31,0.11c-1.04,0.84 -2.02,1.71 -3.01,2.59c-1.41,-0.67 -2.93,-1.49 -4.47,-1.79c-0.08,-0.01 -0.17,-0.02 -0.25,0.01c-0.15,0.08 -0.15,0.28 -0.12,0.45c0.11,0.55 2.06,3.98 1.89,4.15c-1.05,1.09 -2.04,2.1 -2.85,3.41c-0.08,0.13 -0.16,0.26 -0.19,0.41c-0.03,0.16 0.02,0.33 0.14,0.42c0.08,0.05 0.18,0.07 0.27,0.08c0.75,0.1 1.49,0.06 2.22,-0.09c0.22,-0.04 2.2,-0.62 2.25,-0.53c0.69,1.3 1.64,2.51 2.45,3.76c0.08,0.13 0.17,0.27 0.32,0.3c0.1,0.02 0.19,-0.04 0.28,-0.16z" fill="#FFFFFF" id="svg_140"/>
    <path d="m230.68,51.8c0.62,-0.8 1.08,-4.41 1.17,-4.91c1.2,-0.29 3.16,-0.57 4,-1.57c0.02,-0.02 0.04,-0.05 0.05,-0.09c0,-0.05 -0.04,-0.09 -0.07,-0.12c-0.92,-0.86 -2.36,-1.37 -3.46,-1.94c-0.05,-0.03 0.01,-2 0.01,-2.18c0.03,-0.72 0.14,-1.47 -0.17,-2.14c-0.03,-0.07 -0.08,-0.15 -0.15,-0.17c-0.11,-0.05 -0.23,0.03 -0.32,0.11c-1.03,0.84 -2.01,1.71 -3,2.59c-1.41,-0.67 -2.93,-1.49 -4.47,-1.79c-0.09,-0.01 -0.18,-0.03 -0.26,0.01c-0.14,0.08 -0.14,0.28 -0.11,0.44c0.1,0.56 2.05,3.99 1.89,4.16c-1.06,1.09 -2.04,2.1 -2.86,3.41c-0.08,0.13 -0.16,0.26 -0.19,0.41c-0.02,0.15 0.02,0.33 0.15,0.42c0.08,0.05 0.17,0.07 0.27,0.08c0.74,0.1 1.49,0.06 2.22,-0.09c0.21,-0.05 2.19,-0.62 2.24,-0.53c0.7,1.3 1.64,2.51 2.45,3.76c0.08,0.13 0.18,0.26 0.33,0.3c0.09,0.02 0.19,-0.04 0.28,-0.16z" fill="#FFFFFF" id="svg_141"/>
   </g>
   <g id="svg_261">
    <path d="m75.95,124.36c-3.7,2.51 -3.7,8.16 -2.11,12.4c1.57,4.27 4.28,8.16 4.76,12.67c0.57,5.36 -2.11,10.42 -3.31,15.67c-1.2,5.25 0.02,12.11 5.02,13.74c3.96,1.29 8.02,-1.38 11.29,-4.02c8.98,-7.29 19.11,-15.89 30.42,-13.82c12,2.18 16.7,13.82 21.94,23.49c4.78,8.82 11.66,15.2 17.44,23.34c15.24,21.47 30.88,42.01 49.41,60.68c26.1,26.29 52.17,47.12 86.55,60.57c28.03,11 57.93,21 87.59,16.14c22.38,-3.69 42.75,-15.65 60.54,-30.03c28.4,-22.92 47.86,-51.68 47.58,-89.3c-0.28,-35.92 -8.22,-73.12 -32.21,-100.57c-10.85,-12.42 -24.36,-22.2 -38.77,-29.92c-18.55,-9.94 -38.82,-16.47 -59.54,-19.4c-19.83,-2.8 -39.25,-0.38 -59.04,-0.6c-40.06,-0.44 -80.09,11.8 -113.54,34.23c-13.13,8.82 -28.27,15.36 -40.06,25.83c-0.76,0.67 -1.52,1.38 -2.46,1.71c-0.72,0.27 -1.5,0.31 -2.26,0.36c-11.37,0.51 -20.64,-1.27 -31.49,-3.91c-12.59,-3.07 -25.18,-6.16 -37.77,-9.22z" fill="#659CA7" id="svg_262"/>
    <g id="svg_263">
     <path d="m473.86,285.75c-1.5,2.13 -3.09,4.22 -4.76,6.25c-11.59,-33.74 -24.14,-63.46 -38.16,-90.57c-23.77,-46.05 -54.32,-89.04 -89.85,-126.78c3.07,0 6.15,0.07 9.22,0.22c34.03,37.03 63.37,78.84 86.4,123.44c13.61,26.32 25.83,55.05 37.16,87.44z" fill="#3A777B" id="svg_264"/>
     <path d="m493.09,225.87c0.02,1.96 -0.02,3.89 -0.13,5.78c-19.75,-51.72 -48.17,-100.17 -83.5,-142.38c4.31,1.87 8.52,3.91 12.66,6.11c0.48,0.24 0.94,0.51 1.41,0.78c28.1,35.63 51.45,75.26 69.15,117.29c0.24,4.16 0.37,8.31 0.41,12.42z" fill="#3A777B" id="svg_265"/>
     <path d="m221.41,278.81c-3.54,-3.33 -7.05,-6.78 -10.57,-10.29c-1.5,-1.53 -2.98,-3.07 -4.44,-4.58c-25.79,-48.25 -59.04,-92.95 -97.66,-131.6c1.65,0.42 3.33,0.84 4.98,1.22c2.44,0.6 4.76,1.16 7.07,1.64c37.77,39.25 70.15,84.35 95.14,132.71c1.85,3.58 3.68,7.25 5.48,10.89z" fill="#3A777B" id="svg_266"/>
     <path d="m306.38,332.51c-2.72,-1 -5.41,-2.04 -8.09,-3.07c-10.13,-27.74 -21.01,-52.72 -32.95,-75.79c-24.9,-48.28 -57.26,-93.17 -95.05,-132.25c1.96,-1.13 3.94,-2.24 5.89,-3.4c37.69,39.21 70,84.21 94.94,132.51c12.83,24.87 24.44,51.83 35.25,81.99z" fill="#3A777B" id="svg_267"/>
     <path d="m372.09,346.4c-2.28,0.07 -4.57,0.04 -6.85,-0.02c-13.42,-42.01 -28.01,-77.9 -44.69,-110.15c-26.92,-52.14 -62.54,-100.37 -104.25,-141.51c2.13,-1.02 4.28,-1.98 6.44,-2.93c41.38,41.23 76.72,89.37 103.58,141.34c17.11,33.16 32.08,70.01 45.78,113.29z" fill="#3A777B" id="svg_268"/>
     <path d="m427.11,328.4c-1.91,1.2 -3.83,2.36 -5.78,3.42c-13.66,-43.25 -28.53,-80.01 -45.58,-113.02c-26.86,-52.01 -62.35,-100.13 -103.92,-141.18c2.74,-0.42 5.5,-0.78 8.26,-1.09c40.47,40.74 75.07,88.1 101.42,139.16c17.05,33.03 31.92,69.7 45.6,112.71z" fill="#3A777B" id="svg_269"/>
    </g>
    <path d="m170.09,93.36c0,0 5.89,-68.59 71,-74.66c60.76,-5.69 64.85,31.05 105.19,14.62c0,0 10.26,0.29 5.28,9.85c-5,9.56 -16.09,22.4 -29.25,27.18c0,0 7.31,14.05 4.37,23c-2.91,8.96 -156.59,0 -156.59,0z" fill="#FF272C" id="svg_270"/>
    <path d="m170.09,136.05c0,0 -13.66,-0.82 -11,-24.45c2.65,-23.63 46.6,-57.92 89.88,-57.7c44.78,0.22 81.94,23.09 85.94,54.99c0,0 4.41,14.36 -7.63,19.76c-12.07,5.42 -157.18,7.4 -157.18,7.4z" fill="#FFFFFF" id="svg_271"/>
    <path d="m172.22,134.96c0,0 -1.74,-10.54 -10.33,-8.85c-8.57,1.67 -9.16,23.58 10.33,23.76l0,-14.91z" fill="#F4BFA5" id="svg_272"/>
    <path d="m323.47,134.96c0,0 1.76,-10.54 10.33,-8.85c8.57,1.67 9.16,23.58 -10.33,23.76l0,-14.91z" fill="#F4BFA5" id="svg_273"/>
    <path d="m291.83,425.84c0,0 23.2,-2.51 24.31,-3.49c1.13,-0.96 -3.04,-34.18 -16.01,-40.58c0,0 -8.37,0.96 -22.35,4.45c0.02,0 -6.22,29.87 14.05,39.63z" fill="#FF272C" id="svg_274"/>
    <path d="m313.25,429.95c0,0 -18.9,-31.38 -18.44,-46.65c0,0 38.6,-11.67 63.5,-12.11c0,0 17.94,43.74 7.15,74.61c0,0 -10.7,-13.82 -12.42,-27.2c0,0 -20.79,7.02 -39.8,11.36z" id="svg_275"/>
    <path d="m145.26,369.87c0,0 -9.94,28.07 -9.94,29.58s25.12,18.8 38.27,12.82c0,0 17.81,-17.38 24.25,-30.52c0,0 -30.68,-23.92 -52.58,-11.89z" fill="#FF272C" id="svg_276"/>
    <path d="m133.28,394.37c0,0 35.64,5.53 46.75,15.76c0,0 -16.24,37.65 -32.01,57.37c0,0 -44.25,-14.29 -60.32,-42.65c0,0 17.22,0.6 28.34,7.91c0,0 8.18,-20.76 17.24,-38.38z" id="svg_277"/>
    <path d="m123.34,337.62c0,0 -25.73,24.89 -5.46,41.03c10.79,8.58 29.42,3.58 32.34,-6.18c0,0 -6.15,24.36 15,27.67c21.81,3.42 27.66,-15.54 27.66,-15.54s1.54,22.07 26.29,22.12c22.01,0.02 28.25,-19.51 28.25,-19.51s7.37,19.89 26.1,19.43c23.44,-0.6 24.36,-22.23 24.36,-22.23s12.53,17.63 29.01,11.96c17.35,-5.98 14.42,-19.11 14.42,-19.11s14.42,13.14 27.07,1.4c17.68,-16.4 -6.02,-41.03 -6.02,-41.03l-239.01,0z" fill="#FFFFFF" id="svg_278"/>
    <path d="m107.07,164.41c0.8,-0.93 -7.7,-13.42 8.09,-18.2c15.77,-4.78 35.05,16.65 33.01,34.01c-2.04,17.36 -16.07,14.38 -16.07,14.38l-25.03,-30.18z" fill="#FFFFFF" id="svg_279"/>
    <path d="m145.15,244.65c0,0 -46.36,-4.78 -51.43,-35.83c-5.07,-31.05 19.48,-50.56 19.48,-50.56s19.88,5.58 21.03,30.25l21.99,-0.8c0,0 6.85,37.05 -11.07,56.94z" fill="#FF272C" id="svg_280"/>
    <path d="m166.57,180.22c0,0 -37.38,31.38 -43.23,157.41c0,0 125.63,48.39 239.01,0c0,0 6.98,-134.85 -38.88,-161.5c0,0 -93.77,-42.83 -156.9,4.09z" fill="#FF272C" id="svg_281"/>
    <path d="m429.35,253.7c0,0 5.65,8.16 12.07,7.76c6.44,-0.4 0,-6.47 0,-6.47s20.07,8.27 23.38,-3.29c3.33,-11.54 -14.79,-23.29 -30.57,-23.09l-4.87,25.09z" id="svg_282"/>
    <path d="m412.89,218.27c1.22,0 4.81,-14.76 18.72,-5.78c13.92,8.98 10.85,37.94 -3.28,47.79c-14.11,9.87 -21.16,-2.89 -21.16,-2.89l5.72,-39.12z" fill="#FFFFFF" id="svg_283"/>
    <path d="m335.71,253.12c0,0 48.25,-9.25 80.68,3.58c0,0 13.74,-8.36 7.61,-29.85c-6.13,-21.51 -62.06,-41.23 -88.29,-34.65c0,0 -11.16,41.81 0,60.92z" fill="#FF272C" id="svg_284"/>
    <ellipse cx="248.97" cy="141.43" fill="#F4BFA5" id="svg_285" rx="78.89" ry="54.65"/>
    <path d="m170.09,136.05c0,0 27.79,39.45 78.87,15.05c0,0 51.34,17.45 78.31,-22.45c0,0 54.26,39.87 0.59,103.8c-46.93,55.88 -103.97,46.07 -103.97,46.07s17.05,-15.49 -6.46,-19.76c-23.49,-4.25 -66.67,-21.29 -73.5,-57.3c-6.83,-36.03 26.16,-65.41 26.16,-65.41z" fill="#FFFFFF" id="svg_286"/>
    <path d="m376.07,30.04c0,10.4 -6.48,18.83 -16.66,18.83c-10.16,0 -18.4,-8.42 -18.4,-18.83c0,-10.38 7,-17.03 18.98,-17.03c7.59,0 16.07,6.65 16.07,17.03z" fill="#FFFFFF" id="svg_287"/>
    <path d="m230.83,78.02c0,0 -19.88,4.98 -15.4,20.91c4.48,15.91 26.29,11.14 26.29,11.14s-6.42,-4.18 -6.02,-10.96c0,0 6.02,11.36 19.85,6.38c0,0 -5.83,-1.8 -6.61,-9.16c0,0 1.22,0.82 6.02,2.78c2.72,1.11 5.7,4.78 5.7,4.78s8.72,-34.43 -29.84,-25.87z" fill="#FFFFFF" id="svg_288"/>
    <g id="svg_289">
     <g id="svg_290">
      <path d="m225.76,113.47c-2.5,-5.16 -8.44,-5.62 -13.44,-5c-3.54,0.42 -7.2,1.44 -10.11,3.62c-2.52,1.87 -5.41,4.53 -4.83,8.05c0.11,0.64 0.35,1.31 0.87,1.71c1.07,0.78 2.5,0.07 3.65,-0.6c3.94,-2.24 8.46,-3.58 12.96,-3.31c2.35,0.13 4.63,0.69 6.96,0.96c0.89,0.09 1.85,0.16 2.67,-0.24c1.76,-0.84 2.13,-3.4 1.26,-5.18z" fill="#FFFFFF" id="svg_291"/>
     </g>
    </g>
    <g id="svg_292">
     <g id="svg_293">
      <g id="svg_294">
       <path d="m219.24,133.43c0,4.05 -2.81,7.31 -6.31,7.31s-6.31,-3.27 -6.31,-7.31c0,-4.05 2.83,-7.31 6.31,-7.31s6.31,3.27 6.31,7.31z" id="svg_295"/>
      </g>
     </g>
    </g>
    <g id="svg_296">
     <g id="svg_297">
      <path d="m263.34,113.47c2.5,-5.16 8.46,-5.62 13.44,-5c3.54,0.42 7.2,1.44 10.11,3.62c2.54,1.87 5.41,4.53 4.85,8.05c-0.13,0.64 -0.37,1.31 -0.89,1.71c-1.04,0.78 -2.5,0.07 -3.65,-0.6c-3.94,-2.24 -8.46,-3.58 -12.96,-3.31c-2.33,0.13 -4.63,0.69 -6.96,0.96c-0.89,0.09 -1.85,0.16 -2.67,-0.24c-1.76,-0.84 -2.13,-3.4 -1.26,-5.18z" fill="#FFFFFF" id="svg_298"/>
     </g>
    </g>
    <g id="svg_299">
     <g id="svg_300">
      <g id="svg_301">
       <ellipse cx="276.16" cy="133.43" id="svg_302" rx="6.31" ry="7.32"/>
      </g>
     </g>
    </g>
    <ellipse cx="244.81" cy="148.82" fill="#F47373" id="svg_303" rx="19.21" ry="15.6"/>
    <path d="m232.61,169.19c0,0 21.42,5.58 36.03,-12.34c0,0 20.85,14.54 3.11,28.67c-14.11,11.25 -41.49,5.2 -39.14,-16.34z" id="svg_304"/>
    <path d="m263.75,161.84c-8.18,6.85 -17.35,8.22 -23.62,8.18c1.15,3.25 4.78,8.85 15.55,4.56c9.22,-3.67 9.26,-9.16 8.07,-12.74z" fill="#FFFFFF" id="svg_305"/>
    <path d="m278.32,169.37c-9.24,1.02 -24.94,5.2 -24.57,21.67c6.39,0.27 13.03,-1.53 18.01,-5.51c7.09,-5.65 8,-11.34 6.57,-16.16z" fill="#FF272C" id="svg_306"/>
    <path d="m362.35,337.62c0,0 0.8,-15.89 0.04,-37.85c-89.27,37.12 -197.98,13.38 -236.42,2.87c-1.15,10.78 -2.04,22.4 -2.63,34.98c0,0 125.63,48.39 239.01,0z" fill="#8B3C0D" id="svg_307"/>
    <path d="m277.13,323.62c-0.7,-7.65 -6.87,-13.56 -14.37,-13.87c-12.24,-0.47 -31.05,-0.69 -46.38,1.31c-6.89,0.89 -12.29,6.51 -13,13.58c-0.72,6.8 -1.11,16.09 0.02,26.38c0.72,6.76 5.72,12.2 12.26,13.38c12.13,2.22 32.77,4.65 50.93,0.18c6.55,-1.6 11.24,-7.53 11.44,-14.42c0.2,-6.47 0.11,-15.54 -0.89,-26.54zm-8.02,26.25c-0.09,2.8 -1.98,5.2 -4.61,5.85c-6.09,1.51 -13.07,2.27 -20.81,2.27c0,0 0,0 0,0c-10.37,0 -20.12,-1.38 -26.46,-2.56c-2.63,-0.47 -4.68,-2.69 -4.98,-5.4c-1.07,-9.89 -0.59,-18.74 -0.02,-24.43c0.3,-2.87 2.48,-5.13 5.28,-5.49c7.89,-1.04 17.64,-1.56 29.01,-1.56c5.09,0 10.46,0.11 15.9,0.31c3.04,0.11 5.55,2.53 5.83,5.6c1.02,10.98 1.02,19.89 0.87,25.4z" fill="#F9B76E" id="svg_308"/>
    <path d="m270.23,334.11c-5.48,-0.31 -12.05,-0.09 -16.2,0.13c-2.35,0.11 -4.2,2.09 -4.2,4.49l0,0.31c0,2.38 1.83,4.36 4.15,4.49c6.46,0.4 12.63,-0.04 16.46,-0.47c2.24,-0.24 3.94,-2.16 3.94,-4.47c0,-2.38 -1.83,-4.36 -4.15,-4.49z" fill="#F9B76E" id="svg_309"/>
    <path d="m249.84,295.75c-0.48,5.56 -4.52,9.71 -10.07,10.09c-6.2,0.44 -10.09,-5.65 -10.09,-10.09c0,-5.56 4.5,-10.07 10.09,-10.07c5.57,0 10.53,4.78 10.07,10.07z" fill="#FFFFFF" id="svg_310"/>
    <path d="m125.27,123.81c0,0 -13.18,10.31 -4.13,20c9.07,9.71 23.81,0.44 24.4,0c0.59,-0.44 9.63,2.53 9.94,-4.91c0.28,-7.47 -6.35,-22.69 -30.21,-15.09z" id="svg_311"/>
    <path d="m374.79,37.64c-5,3.27 -11.13,4.78 -16.98,3.8c-6.26,-1.02 -12.59,-5.33 -14.7,-11.65c-0.63,-1.93 -0.52,-4.67 -0.54,-7.38c-1,2.22 -1.54,4.78 -1.54,7.62c0,10.4 8.24,18.83 18.4,18.83c7.52,0 13,-4.62 15.37,-11.22z" fill="#E5E5E5" id="svg_312"/>
    <g id="svg_313">
     <g id="svg_314">
      <g id="svg_315">
       <path d="m330.62,143.14c3.41,3.27 5.63,7.76 6.09,12.56c0.04,0.6 0.46,1.11 1.09,1.11c0.54,0 1.13,-0.51 1.09,-1.11c-0.5,-5.38 -2.87,-10.45 -6.74,-14.14c-1.02,-0.98 -2.57,0.6 -1.52,1.58l0,0z" fill="#E5E5E5" id="svg_316"/>
      </g>
     </g>
     <g id="svg_317">
      <g id="svg_318">
       <path d="m338.71,169.62c0.78,6.42 0.33,12.87 -1.33,19.09c-0.37,1.4 1.72,1.98 2.09,0.6c1.72,-6.4 2.22,-13.09 1.41,-19.69c-0.15,-1.4 -2.33,-1.4 -2.17,0l0,0z" fill="#E5E5E5" id="svg_319"/>
      </g>
     </g>
     <g id="svg_320">
      <g id="svg_321">
       <path d="m332.41,203.55c-1.76,5.47 -4.41,10.65 -7.87,15.18c-0.37,0.49 -0.46,1.11 0,1.58c0.37,0.4 1.17,0.47 1.52,0c3.72,-4.87 6.57,-10.29 8.44,-16.16c0.43,-1.36 -1.65,-1.96 -2.09,-0.6l0,0z" fill="#E5E5E5" id="svg_322"/>
      </g>
     </g>
     <g id="svg_323">
      <g id="svg_324">
       <path d="m316.23,230.98c-4.65,4.29 -9.33,8.58 -13.98,12.87c-1.04,0.96 0.5,2.53 1.52,1.58c4.68,-4.29 9.33,-8.58 14,-12.89c1.04,-0.96 -0.5,-2.51 -1.54,-1.56l0,0z" fill="#E5E5E5" id="svg_325"/>
      </g>
     </g>
     <g id="svg_326">
      <g id="svg_327">
       <path d="m290.72,253.14c-3.63,3.27 -7.96,5.6 -12.61,6.91c-1.35,0.36 -0.76,2.51 0.59,2.13c5.02,-1.4 9.66,-3.96 13.55,-7.47c1.07,-0.96 -0.48,-2.51 -1.52,-1.58l0,0z" fill="#E5E5E5" id="svg_328"/>
      </g>
     </g>
     <g id="svg_329">
      <g id="svg_330">
       <path d="m263.23,266.79c-3.98,1.71 -8.11,3.02 -12.33,3.91c-1.37,0.29 -0.8,2.42 0.57,2.13c4.24,-0.89 8.37,-2.2 12.35,-3.89c0.54,-0.24 0.91,-0.76 0.76,-1.38c-0.15,-0.51 -0.8,-1 -1.35,-0.78l0,0z" fill="#E5E5E5" id="svg_331"/>
      </g>
     </g>
     <g id="svg_332">
      <g id="svg_333">
       <path d="m326.95,158.7c1.41,4.27 1.96,8.78 1.59,13.29c-0.11,1.42 2.07,1.4 2.17,0c0.39,-4.69 -0.2,-9.45 -1.67,-13.89c-0.46,-1.36 -2.54,-0.78 -2.09,0.6l0,0z" fill="#E5E5E5" id="svg_334"/>
      </g>
     </g>
     <g id="svg_335">
      <g id="svg_336">
       <path d="m326.4,183.88c-0.41,6 -2.17,11.85 -5.11,17.05c-0.7,1.24 1.17,2.36 1.89,1.11c3.13,-5.56 4.96,-11.76 5.39,-18.16c0.11,-1.42 -2.07,-1.42 -2.17,0l0,0z" fill="#E5E5E5" id="svg_337"/>
      </g>
     </g>
     <g id="svg_338">
      <g id="svg_339">
       <path d="m314.01,211.49c-2.44,4.85 -5.44,9.38 -9,13.45c-0.94,1.04 0.59,2.62 1.52,1.56c3.7,-4.2 6.85,-8.87 9.35,-13.89c0.65,-1.27 -1.24,-2.4 -1.87,-1.11l0,0z" fill="#E5E5E5" id="svg_340"/>
      </g>
     </g>
     <g id="svg_341">
      <g id="svg_342">
       <path d="m295.98,232.69c-3.39,3.8 -7.07,7.31 -11,10.49c-0.48,0.38 -0.39,1.18 0,1.58c0.43,0.47 1.07,0.36 1.52,0c3.94,-3.2 7.63,-6.69 11.03,-10.49c0.94,-1.04 -0.61,-2.62 -1.54,-1.58l0,0z" fill="#E5E5E5" id="svg_343"/>
      </g>
     </g>
     <g id="svg_344">
      <g id="svg_345">
       <path d="m273.58,249.16c-0.83,0.49 -1.67,0.93 -2.54,1.33c-0.07,0.02 -0.11,0.04 -0.17,0.07c-0.11,0.04 -0.13,0.07 -0.07,0.02c0.09,-0.02 0.07,-0.02 -0.04,0.02c-0.07,0.02 -0.13,0.07 -0.17,0.09c-0.22,0.09 -0.43,0.18 -0.65,0.24c-0.46,0.18 -0.94,0.33 -1.39,0.49c-0.54,0.18 -0.96,0.78 -0.76,1.38c0.17,0.56 0.76,0.96 1.33,0.78c1.94,-0.62 3.83,-1.47 5.59,-2.49c0.48,-0.29 0.7,-1.02 0.39,-1.53c-0.33,-0.49 -0.96,-0.71 -1.5,-0.4l0,0z" fill="#E5E5E5" id="svg_346"/>
      </g>
     </g>
    </g>
    <path d="m214.04,93.14c14.9,-5.67 31.12,-7.67 46.93,-5.78" fill="none" id="svg_347" stroke="#E5E5E5" stroke-miterlimit="10"/>
    <path d="m136.69,242.47c0,0 -0.52,-10.11 9.83,-28.43" fill="none" id="svg_348" stroke="#991F28" stroke-linecap="round" stroke-linejoin="round" stroke-miterlimit="10"/>
    <path d="m210.08,149.88c0,4.27 -5.72,7.71 -12.79,7.71c-7.07,0 -12.79,-3.45 -12.79,-7.71c0,-4.25 5.72,-7.69 12.79,-7.69c7.07,0 12.79,3.45 12.79,7.69z" fill="#F47373" id="svg_349"/>
    <path d="m305.77,149.88c0,4.27 -5.74,7.71 -12.79,7.71c-7.07,0 -12.79,-3.45 -12.79,-7.71c0,-4.25 5.72,-7.69 12.79,-7.69c7.07,0 12.79,3.45 12.79,7.69z" fill="#F47373" id="svg_350"/>
   </g>
  </g>
 </g>
</svg>