<?xml version="1.0"?>
<svg width="500" height="500" xmlns="http://www.w3.org/2000/svg" xmlns:svg="http://www.w3.org/2000/svg" enable-background="new 0 0 500 500" version="1.1" xml:space="preserve">
 <g class="layer">
  <title>Layer 1</title>
  <g id="OBJECTS">
   <g id="svg_1"/>
   <g id="svg_3">
    <path d="m408.01,118.37c-23.15,-26.19 -56.16,-49.19 -91.08,-43.97c-37.3,5.59 -68.39,36.06 -96.02,61.3c-28.34,25.93 -39.08,51.17 -23.62,90.96c4.26,10.96 8.51,22.37 8.07,34.22c-0.97,26.04 -24.21,47.66 -21.84,73.61c1.25,13.67 10.4,26.15 22.48,30.65c22.13,8.26 34.04,-10.96 50.19,-22.4c19.07,-13.5 42.33,-24.57 64.2,-17.58c13.86,4.45 24.85,15.44 36.69,24.34c11.85,8.89 26.67,16.08 40.45,11.39c4.61,-1.55 8.75,-4.35 12.68,-7.39c37.87,-29.18 57.59,-83.23 48.22,-132.29c-2.53,-13.26 -6.96,-26.04 -12.09,-38.42c-9.66,-23.42 -21.94,-45.84 -38.34,-64.41z" fill="#ADD8D6" id="svg_4"/>
   </g>
   <g id="svg_5"/>
   <g id="svg_130">
    <path d="m67.57,426.7c1.31,-0.69 4.09,-5.21 4.5,-5.84c1.78,0.34 4.55,1.15 6.27,0.33c0.04,-0.02 0.09,-0.05 0.12,-0.09c0.03,-0.07 0,-0.14 -0.02,-0.21c-0.71,-1.69 -2.31,-3.23 -3.44,-4.66c-0.05,-0.07 1.22,-2.66 1.33,-2.89c0.47,-0.94 1.07,-1.87 1.06,-2.96c0,-0.11 -0.02,-0.23 -0.1,-0.32c-0.12,-0.12 -0.32,-0.08 -0.49,-0.04c-1.87,0.5 -3.71,1.07 -5.55,1.64c-1.47,-1.73 -3,-3.74 -4.88,-5.06c-0.1,-0.07 -0.21,-0.15 -0.34,-0.14c-0.24,0.01 -0.37,0.28 -0.42,0.52c-0.19,0.8 0.34,6.54 0.01,6.67c-2.05,0.81 -3.97,1.56 -5.84,2.81c-0.19,0.12 -0.38,0.25 -0.5,0.44c-0.13,0.19 -0.17,0.44 -0.06,0.63c0.07,0.13 0.19,0.21 0.31,0.28c0.93,0.57 1.95,0.97 3.01,1.21c0.32,0.07 3.3,0.5 3.3,0.64c0.15,2.16 0.68,4.33 1,6.48c0.04,0.22 0.08,0.46 0.25,0.59c0.12,0.1 0.28,0.08 0.48,-0.03z" fill="#FFFFFF" id="svg_131"/>
    <path d="m449.95,304.22c-0.49,-1.4 -4.57,-4.8 -5.13,-5.31c0.6,-1.7 1.79,-4.33 1.23,-6.15c-0.01,-0.05 -0.03,-0.1 -0.07,-0.13c-0.06,-0.04 -0.14,-0.03 -0.21,-0.01c-1.78,0.46 -3.53,1.82 -5.11,2.73c-0.07,0.04 -2.45,-1.59 -2.67,-1.74c-0.86,-0.59 -1.69,-1.32 -2.77,-1.47c-0.11,-0.01 -0.24,-0.02 -0.33,0.05c-0.14,0.1 -0.13,0.31 -0.11,0.48c0.22,1.93 0.52,3.82 0.82,5.73c-1.93,1.21 -4.14,2.43 -5.72,4.09c-0.08,0.1 -0.17,0.2 -0.18,0.32c-0.02,0.24 0.23,0.41 0.45,0.49c0.77,0.31 6.52,0.61 6.6,0.95c0.51,2.15 0.98,4.16 1.94,6.19c0.1,0.2 0.2,0.41 0.37,0.56c0.16,0.15 0.41,0.24 0.62,0.15c0.13,-0.05 0.22,-0.16 0.31,-0.27c0.7,-0.83 1.25,-1.78 1.64,-2.8c0.11,-0.3 0.96,-3.19 1.11,-3.18c2.15,0.17 4.38,-0.04 6.56,-0.05c0.22,0 0.46,-0.01 0.62,-0.16c0.1,-0.1 0.11,-0.27 0.03,-0.47z" fill="#FFFFFF" id="svg_132"/>
    <path d="m275.45,167.44c-0.41,-1.16 -3.78,-3.98 -4.24,-4.39c0.49,-1.41 1.48,-3.59 1.01,-5.1c-0.01,-0.04 -0.02,-0.08 -0.06,-0.11c-0.05,-0.03 -0.11,-0.02 -0.17,0c-1.47,0.38 -2.92,1.5 -4.23,2.26c-0.06,0.03 -2.03,-1.32 -2.21,-1.44c-0.71,-0.5 -1.4,-1.1 -2.29,-1.22c-0.1,-0.01 -0.2,-0.02 -0.28,0.04c-0.11,0.08 -0.11,0.25 -0.09,0.39c0.18,1.6 0.43,3.17 0.68,4.75c-1.6,1 -3.43,2.01 -4.73,3.39c-0.07,0.08 -0.15,0.16 -0.16,0.26c-0.02,0.2 0.19,0.34 0.37,0.41c0.64,0.26 5.41,0.51 5.47,0.79c0.42,1.78 0.81,3.44 1.61,5.12c0.08,0.17 0.16,0.34 0.3,0.47c0.14,0.12 0.34,0.19 0.51,0.12c0.11,-0.04 0.19,-0.13 0.27,-0.22c0.58,-0.7 1.03,-1.48 1.35,-2.32c0.1,-0.25 0.8,-2.64 0.92,-2.63c1.78,0.14 3.63,-0.04 5.43,-0.05c0.18,0 0.38,0 0.51,-0.13c0.09,-0.08 0.09,-0.22 0.03,-0.39z" fill="#FFFFFF" id="svg_133"/>
    <path d="m59.67,154.78c-0.93,-0.42 -4.55,-0.01 -5.06,0.03c-0.57,-1.1 -1.31,-2.94 -2.47,-3.52c-0.03,-0.02 -0.07,-0.04 -0.1,-0.03c-0.05,0.01 -0.08,0.06 -0.11,0.1c-0.61,1.1 -0.77,2.61 -1.06,3.82c-0.02,0.06 -1.95,0.47 -2.13,0.5c-0.7,0.15 -1.46,0.22 -2.04,0.68c-0.06,0.05 -0.12,0.11 -0.13,0.19c-0.02,0.11 0.09,0.21 0.18,0.28c1.06,0.8 2.15,1.55 3.23,2.31c-0.31,1.53 -0.75,3.2 -0.67,4.77c0,0.09 0.01,0.18 0.06,0.25c0.11,0.12 0.31,0.07 0.46,0.01c0.52,-0.24 3.4,-2.95 3.6,-2.83c1.31,0.77 2.53,1.49 3.99,1.97c0.14,0.05 0.3,0.1 0.45,0.09c0.15,-0.02 0.31,-0.1 0.37,-0.24c0.03,-0.09 0.02,-0.19 0.01,-0.29c-0.08,-0.74 -0.29,-1.46 -0.61,-2.13c-0.1,-0.2 -1.12,-1.99 -1.05,-2.06c1.1,-0.99 2.05,-2.19 3.08,-3.27c0.1,-0.11 0.21,-0.24 0.21,-0.39c0,-0.1 -0.08,-0.18 -0.21,-0.24z" fill="#FFFFFF" id="svg_134"/>
    <path d="m193.47,468.35c0.61,-1.22 0.25,-6.1 0.23,-6.79c1.51,-0.7 4.02,-1.59 4.86,-3.12c0.02,-0.05 0.04,-0.09 0.04,-0.14c-0.01,-0.06 -0.07,-0.11 -0.13,-0.14c-1.44,-0.88 -3.46,-1.17 -5.08,-1.63c-0.07,-0.03 -0.51,-2.64 -0.55,-2.88c-0.16,-0.95 -0.21,-1.97 -0.81,-2.78c-0.06,-0.08 -0.13,-0.17 -0.24,-0.18c-0.15,-0.03 -0.29,0.1 -0.39,0.23c-1.13,1.38 -2.19,2.8 -3.26,4.21c-2.04,-0.5 -4.26,-1.18 -6.37,-1.16c-0.12,0 -0.24,0.01 -0.33,0.08c-0.17,0.14 -0.12,0.41 -0.04,0.61c0.29,0.71 3.77,4.71 3.6,4.98c-1.1,1.71 -2.13,3.31 -2.85,5.25c-0.08,0.19 -0.15,0.39 -0.14,0.59c0.01,0.21 0.11,0.43 0.3,0.51c0.11,0.05 0.25,0.05 0.38,0.04c1,-0.07 1.97,-0.32 2.89,-0.71c0.28,-0.12 2.74,-1.4 2.82,-1.3c1.27,1.53 2.83,2.87 4.23,4.3c0.14,0.15 0.31,0.3 0.51,0.31c0.14,0 0.25,-0.1 0.33,-0.28z" fill="#FFFFFF" id="svg_135"/>
    <path d="m209.69,336.27c0.63,-0.8 1.08,-4.41 1.17,-4.91c1.2,-0.29 3.16,-0.57 4,-1.56c0.02,-0.03 0.05,-0.06 0.05,-0.1c0,-0.04 -0.04,-0.09 -0.07,-0.12c-0.92,-0.85 -2.35,-1.36 -3.46,-1.94c-0.05,-0.02 0.01,-2 0.02,-2.18c0.02,-0.71 0.13,-1.47 -0.18,-2.14c-0.03,-0.07 -0.07,-0.14 -0.15,-0.17c-0.11,-0.05 -0.22,0.03 -0.31,0.11c-1.04,0.84 -2.02,1.71 -3.01,2.59c-1.41,-0.67 -2.93,-1.49 -4.47,-1.79c-0.08,-0.01 -0.18,-0.03 -0.25,0.01c-0.15,0.08 -0.15,0.28 -0.12,0.44c0.11,0.56 2.05,3.99 1.89,4.16c-1.05,1.09 -2.04,2.1 -2.86,3.41c-0.08,0.13 -0.16,0.26 -0.18,0.41c-0.03,0.16 0.01,0.33 0.14,0.42c0.08,0.05 0.18,0.07 0.27,0.08c0.74,0.1 1.49,0.06 2.22,-0.09c0.22,-0.05 2.2,-0.62 2.24,-0.53c0.7,1.3 1.65,2.51 2.45,3.76c0.08,0.13 0.18,0.26 0.33,0.3c0.09,0.02 0.19,-0.04 0.28,-0.16z" fill="#FFFFFF" id="svg_136"/>
    <path d="m427.93,87.1c0.63,-0.8 1.08,-4.41 1.17,-4.92c1.2,-0.28 3.16,-0.56 4,-1.56c0.02,-0.03 0.05,-0.06 0.05,-0.09c0,-0.05 -0.04,-0.09 -0.07,-0.12c-0.92,-0.86 -2.35,-1.37 -3.46,-1.94c-0.05,-0.03 0.01,-2 0.02,-2.18c0.02,-0.72 0.13,-1.47 -0.18,-2.14c-0.03,-0.07 -0.08,-0.15 -0.15,-0.18c-0.11,-0.04 -0.23,0.04 -0.32,0.11c-1.03,0.85 -2.01,1.72 -3,2.6c-1.41,-0.67 -2.93,-1.5 -4.47,-1.79c-0.09,-0.02 -0.18,-0.03 -0.25,0.01c-0.15,0.07 -0.15,0.28 -0.12,0.44c0.1,0.56 2.05,3.99 1.89,4.16c-1.05,1.09 -2.04,2.1 -2.86,3.4c-0.08,0.13 -0.16,0.27 -0.18,0.42c-0.03,0.15 0.01,0.32 0.14,0.41c0.08,0.06 0.18,0.08 0.27,0.09c0.74,0.09 1.49,0.06 2.22,-0.09c0.22,-0.05 2.2,-0.62 2.24,-0.54c0.7,1.31 1.65,2.51 2.45,3.77c0.08,0.12 0.18,0.26 0.33,0.3c0.09,0.02 0.19,-0.04 0.28,-0.16z" fill="#FFFFFF" id="svg_137"/>
    <path d="m440.96,108.52c0.73,0.12 3.21,-0.86 3.57,-0.99c0.61,0.67 1.48,1.83 2.42,2.02c0.02,0 0.05,0.01 0.07,0c0.04,-0.02 0.05,-0.06 0.06,-0.09c0.22,-0.9 0.04,-2 0.02,-2.91c0,-0.04 1.28,-0.7 1.4,-0.76c0.47,-0.24 0.99,-0.43 1.31,-0.87c0.04,-0.05 0.07,-0.1 0.06,-0.16c-0.01,-0.08 -0.1,-0.13 -0.18,-0.16c-0.91,-0.37 -1.82,-0.69 -2.73,-1.01c-0.07,-1.15 -0.08,-2.41 -0.43,-3.51c-0.02,-0.06 -0.05,-0.12 -0.1,-0.16c-0.1,-0.06 -0.23,0.01 -0.32,0.09c-0.32,0.26 -1.84,2.73 -2,2.68c-1.07,-0.29 -2.07,-0.57 -3.2,-0.63c-0.11,0 -0.23,-0.01 -0.33,0.03c-0.11,0.04 -0.21,0.13 -0.22,0.24c-0.01,0.07 0.02,0.14 0.04,0.2c0.21,0.51 0.49,0.98 0.85,1.39c0.1,0.13 1.17,1.19 1.13,1.25c-0.59,0.91 -1.02,1.95 -1.55,2.91c-0.05,0.1 -0.1,0.21 -0.07,0.31c0.02,0.08 0.09,0.12 0.2,0.13z" fill="#FFFFFF" id="svg_138"/>
    <path d="m45.45,376.35c0.73,0.12 3.21,-0.87 3.57,-0.99c0.61,0.67 1.48,1.83 2.42,2.02c0.02,0 0.05,0 0.07,-0.01c0.03,-0.01 0.05,-0.05 0.06,-0.09c0.22,-0.89 0.04,-1.99 0.02,-2.9c0,-0.04 1.29,-0.7 1.4,-0.76c0.47,-0.24 0.99,-0.43 1.32,-0.87c0.03,-0.05 0.06,-0.1 0.06,-0.16c-0.02,-0.09 -0.11,-0.13 -0.19,-0.16c-0.9,-0.37 -1.81,-0.69 -2.72,-1.01c-0.08,-1.15 -0.08,-2.41 -0.44,-3.51c-0.02,-0.06 -0.04,-0.12 -0.1,-0.16c-0.1,-0.06 -0.23,0.01 -0.32,0.08c-0.32,0.27 -1.83,2.74 -2,2.69c-1.07,-0.29 -2.07,-0.57 -3.2,-0.63c-0.11,0 -0.23,-0.01 -0.33,0.03c-0.11,0.04 -0.2,0.12 -0.22,0.24c-0.01,0.07 0.02,0.14 0.05,0.2c0.2,0.51 0.48,0.98 0.84,1.39c0.11,0.13 1.17,1.19 1.14,1.25c-0.59,0.91 -1.03,1.95 -1.55,2.91c-0.06,0.1 -0.11,0.21 -0.08,0.31c0.02,0.07 0.09,0.11 0.2,0.13z" fill="#FFFFFF" id="svg_139"/>
    <path d="m415.65,275.84c0.63,-0.8 1.09,-4.41 1.17,-4.91c1.2,-0.29 3.16,-0.57 4,-1.56c0.03,-0.03 0.05,-0.06 0.05,-0.1c0,-0.05 -0.04,-0.09 -0.07,-0.12c-0.92,-0.85 -2.35,-1.36 -3.46,-1.94c-0.05,-0.02 0.01,-2 0.02,-2.18c0.02,-0.71 0.13,-1.47 -0.18,-2.14c-0.03,-0.07 -0.07,-0.14 -0.15,-0.17c-0.11,-0.05 -0.22,0.03 -0.31,0.11c-1.04,0.84 -2.02,1.71 -3.01,2.59c-1.41,-0.67 -2.93,-1.49 -4.47,-1.79c-0.08,-0.01 -0.17,-0.02 -0.25,0.01c-0.15,0.08 -0.15,0.28 -0.12,0.45c0.11,0.55 2.06,3.98 1.89,4.15c-1.05,1.09 -2.04,2.1 -2.85,3.41c-0.08,0.13 -0.16,0.26 -0.19,0.41c-0.03,0.16 0.02,0.33 0.14,0.42c0.08,0.05 0.18,0.07 0.27,0.08c0.75,0.1 1.49,0.06 2.22,-0.09c0.22,-0.04 2.2,-0.62 2.25,-0.53c0.69,1.3 1.64,2.51 2.45,3.76c0.08,0.13 0.17,0.27 0.32,0.3c0.1,0.02 0.19,-0.04 0.28,-0.16z" fill="#FFFFFF" id="svg_140"/>
    <path d="m229.68,56.8c0.62,-0.8 1.08,-4.41 1.17,-4.91c1.2,-0.29 3.16,-0.57 4,-1.57c0.02,-0.02 0.04,-0.05 0.05,-0.09c0,-0.05 -0.04,-0.09 -0.07,-0.12c-0.92,-0.86 -2.36,-1.37 -3.46,-1.94c-0.05,-0.03 0.01,-2 0.01,-2.18c0.03,-0.72 0.14,-1.47 -0.17,-2.14c-0.03,-0.07 -0.08,-0.15 -0.15,-0.17c-0.11,-0.05 -0.23,0.03 -0.32,0.11c-1.03,0.84 -2.01,1.71 -3,2.59c-1.41,-0.67 -2.93,-1.49 -4.47,-1.79c-0.09,-0.01 -0.18,-0.03 -0.26,0.01c-0.14,0.08 -0.14,0.28 -0.11,0.44c0.1,0.56 2.05,3.99 1.89,4.16c-1.06,1.09 -2.04,2.1 -2.86,3.41c-0.08,0.13 -0.16,0.26 -0.19,0.41c-0.02,0.15 0.02,0.33 0.15,0.42c0.08,0.05 0.17,0.07 0.27,0.08c0.74,0.1 1.49,0.06 2.22,-0.09c0.21,-0.05 2.19,-0.62 2.24,-0.53c0.7,1.3 1.64,2.51 2.45,3.76c0.08,0.13 0.18,0.26 0.33,0.3c0.09,0.02 0.19,-0.04 0.28,-0.16z" fill="#FFFFFF" id="svg_141"/>
   </g>
   <g id="svg_153">
    <g id="svg_557">
     <path d="m270.57,104.5c0,0 3.83,-49.31 46.19,-53.68c39.54,-4.09 42.2,22.32 68.42,10.51c0,0 6.69,0.21 3.44,7.08c-3.25,6.87 -10.47,16.11 -19.03,19.54c0,0 4.75,10.1 2.86,16.54c-1.91,6.44 -101.88,0 -101.88,0z" fill="#FF272C" id="svg_154"/>
     <path d="m270.57,135.2c0,0 -8.87,-0.59 -7.16,-17.58c1.74,-16.99 30.33,-41.64 58.48,-41.48c29.11,0.16 53.3,16.6 55.91,39.53c0,0 2.87,10.32 -4.98,14.21c-7.84,3.9 -102.25,5.32 -102.25,5.32z" fill="#FFFFFF" id="svg_155"/>
     <path d="m271.97,134.41c0,0 -1.15,-7.57 -6.72,-6.36c-5.57,1.2 -5.96,16.95 6.72,17.08l0,-10.72z" fill="#F4BFA5" id="svg_156"/>
     <path d="m370.34,134.41c0,0 1.15,-7.57 6.72,-6.36c5.57,1.2 5.96,16.95 -6.72,17.08l0,-10.72z" fill="#F4BFA5" id="svg_157"/>
     <path d="m254.42,303.31c0,0 -6.46,20.18 -6.46,21.27s16.35,13.52 24.9,9.22c0,0 11.6,-12.5 15.77,-21.94c0,0 -19.95,-17.19 -34.21,-8.55z" fill="#FF272C" id="svg_158"/>
     <path d="m246.62,320.92c0,0 23.19,3.98 30.41,11.33c0,0 -10.55,27.07 -20.82,41.24c0,0 -28.79,-10.28 -39.24,-30.67c0,0 11.22,0.43 18.43,5.69c0,0 5.33,-14.93 11.22,-27.6z" id="svg_159"/>
     <path d="m383.09,303.31c0,0 6.46,20.18 6.46,21.27s-16.34,13.52 -24.9,9.22c0,0 -11.6,-12.5 -15.77,-21.94c0,0 19.96,-17.19 34.21,-8.55z" fill="#FF272C" id="svg_160"/>
     <path d="m390.88,320.92c0,0 -23.19,3.98 -30.41,11.33c0,0 10.55,27.07 20.82,41.24c0,0 28.79,-10.28 39.24,-30.67c0,0 -11.22,0.43 -18.43,5.69c0,0 -5.32,-14.93 -11.22,-27.6z" id="svg_161"/>
     <path d="m240.16,280.12c0,0 -16.72,17.9 -3.55,29.5c7.02,6.17 19.14,2.57 21.04,-4.44c0,0 -4,17.51 9.76,19.9c14.19,2.46 17.99,-11.17 17.99,-11.17s1,15.87 17.1,15.9c14.33,0.02 18.38,-14.03 18.38,-14.03s4.8,14.3 16.99,13.97c15.24,-0.43 15.83,-15.98 15.83,-15.98s8.16,12.67 18.88,8.6c11.27,-4.3 9.38,-13.74 9.38,-13.74s9.38,9.44 17.61,1.01c11.49,-11.79 -3.93,-29.5 -3.93,-29.5l-155.48,0z" fill="#FFFFFF" id="svg_162"/>
     <path d="m268.3,166.95c0,0 -24.33,22.56 -28.14,113.17c0,0 81.74,34.79 155.48,0c0,0 4.54,-96.95 -25.29,-116.11c0,0 -61,-30.79 -102.05,2.94z" fill="#FF272C" id="svg_163"/>
     <path d="m395.64,280.12c0,0 0.54,-11.43 0.03,-27.21c-58.06,26.69 -128.79,9.62 -153.8,2.06c-0.74,7.75 -1.33,16.11 -1.71,25.15c0,0 81.74,34.79 155.48,0z" fill="#8B3C0D" id="svg_164"/>
     <g id="svg_165">
      <path d="m434.36,279.78c0,0 7.47,-7.48 7.45,-7.89c-0.01,-0.42 -9.48,-39.1 -9.48,-39.1l-10.14,0.5l12.17,46.5z" fill="#80B9C1" id="svg_166"/>
      <path d="m440.31,273.65l-9.94,-37.79l-3.76,0.85l10.47,40.32c1.1,-1.12 2.32,-2.37 3.24,-3.37z" fill="#3A777B" id="svg_167"/>
      <path d="m376.65,250.54c0,0 11.4,37.87 14.64,46.15c0,0 31.53,-12.7 43.06,-16.91l-12.17,-46.5l-45.54,17.26z" fill="#659CA7" id="svg_168"/>
      <path d="m404.87,291.26c5.14,-2.05 11.03,-4.38 16.45,-6.5l-12.26,-46.5l-17.33,6.57c1.5,5.24 11.18,39.97 13.14,46.44z" fill="#3A777B" id="svg_169"/>
      <polygon fill="#80B9C1" id="svg_170" points="376.8671718290716,256.25914257328805 423.8050541258599,239.74702611897737 421.7439791314973,221.57617082149227 370.71084188235545,240.2919250110117 "/>
      <path d="m421.75,221.58l12.26,5.07c0,0 0.74,11.63 0.44,11.65c-0.3,0.02 -10.65,1.45 -10.65,1.45l-2.05,-18.17z" fill="#F9B76E" id="svg_171"/>
      <polygon fill="#3A777B" id="svg_172" points="391.9468258737652,250.95379706695894 409.90377393798553,244.63848547533598 405.5623624890177,227.5111480094838 387.04804393588347,234.3010363736339 "/>
      <path d="m432.62,238.54l-0.48,-12.66l-5.94,-2.46l1.29,15.82c1.74,-0.24 3.72,-0.51 5.14,-0.7z" fill="#3A777B" id="svg_173"/>
     </g>
     <path d="m432.36,249.57c0,0 -3.24,8.8 0,9.24c3.23,0.43 3.41,-3.44 3.41,-3.44s-0.95,12.66 5.7,10.51c6.66,-2.14 4.57,-23.19 4.57,-23.19l-13.68,6.87z" id="svg_174"/>
     <path d="m452.87,236.62c-0.03,0.11 -0.06,0.22 -0.08,0.34c-2.73,11.46 -19.04,19.13 -27.32,11.46c-8.28,-7.67 -0.38,-12.96 -0.65,-13.79l16.42,-8.65c6.1,-3.2 13.24,3.31 11.63,10.64z" fill="#FFFFFF" id="svg_175"/>
     <path d="m444.53,226.46c-16.03,-59.7 -66.34,-49.91 -66.34,-49.91c-21.29,27.47 -3.81,51.1 -3.81,51.1c32.32,-15.21 45.61,0.85 49.81,8.37c1.4,2.52 3.83,4.12 6.46,4.23c5.33,0.26 9,-1.84 11.37,-4.07c2.5,-2.37 3.45,-6.22 2.5,-9.73z" fill="#FF272C" id="svg_176"/>
     <path d="m228.12,120.05c0,0 4.95,-4.25 3.3,-8.26c-1.64,-3.99 -7.6,0 -7.6,0s-1.53,9.49 4.3,8.26z" id="svg_177"/>
     <g id="svg_178">
      <path d="m241.96,110.59c0,0 10.07,-9.27 10.07,-9.8c0,-0.54 -5.04,-29.1 -5.04,-29.1l-13.21,0l8.18,38.9z" fill="#F47373" id="svg_179"/>
      <path d="m250,103l-5.7,-27.44l-4.94,0.86l6.27,30.75c1.47,-1.39 3.11,-2.94 4.37,-4.17z" fill="#991F28" id="svg_180"/>
      <path d="m173.73,91.3c0,0 7.6,27.63 11.4,38.58c0,0 41.62,-14.54 56.82,-19.29l-8.18,-38.9l-60.05,19.61z" fill="#FF272C" id="svg_181"/>
      <path d="m203.07,123.66c6.76,-2.33 14.54,-5 21.7,-7.41l-8.3,-38.9l-22.85,7.45c1.7,6.92 7.2,30.33 9.45,38.86z" fill="#991F28" id="svg_182"/>
      <path d="m170.22,65.84c-0.04,2.46 2.82,4.95 4.5,5.69c2.28,1.02 4.82,0.96 7.27,0.64c3.47,-0.43 6.9,-1.36 10.14,-2.84c2.01,-0.93 7.99,-3.42 7.47,-6.68c-0.35,-2.21 -3.62,-4.25 -5.23,-5.11c-2.76,-1.49 -5.86,-1.93 -8.88,-1.61c-4.64,0.48 -9.21,2.38 -12.67,5.96c-0.74,0.77 -2.21,2.11 -2.5,3.26c-0.06,0.22 -0.08,0.46 -0.08,0.7z" fill="#991F28" id="svg_183"/>
      <path d="m201.03,61.59c-0.93,-3.84 -3.18,-7.53 -5.77,-10.18c-3.27,-3.36 -7.48,-5.15 -11.88,-5.37c-3.11,-0.18 -6.22,0.37 -9.21,1.29c-3.78,1.17 -4.77,3.16 -5.01,7.45c-0.23,3.69 0,7.43 0.76,11.04c0,0 13.3,-13.31 30.53,-1.87c0,0 0.58,-2.37 0.58,-2.37z" fill="#FF272C" id="svg_184"/>
      <path d="m232.83,45.76c0.27,0.43 0.4,1.02 0.28,1.87c-0.44,3.15 -2.46,5.83 -4.6,7.75c-5.42,4.92 -14.63,8.07 -21.43,5.11c-1.44,-0.64 -1.09,-1.57 -0.69,-3.08c0.34,-1.34 0.83,-2.64 1.46,-3.85c1.68,-3.24 4.31,-5.69 7.29,-7.32c4.6,-2.52 9.93,-3.53 14.91,-1.93c1.16,0.37 2.25,0.64 2.79,1.45z" fill="#991F28" id="svg_185"/>
      <path d="m204.43,60.19c-0.69,-0.74 -0.54,-3.99 -0.55,-4.94c-0.07,-3.76 0.61,-7.53 2.16,-10.85c1.56,-3.36 3.96,-6.09 6.76,-8.13c1.82,-1.33 3.82,-2.37 5.87,-3.18c3.01,-1.2 5.86,-3.08 8.25,0.18c2.67,3.64 4.8,7.86 6.07,12.37c0,0 -17.48,-3.61 -26.99,16.25c0.01,0 -1.57,-1.69 -1.57,-1.69z" fill="#FF272C" id="svg_186"/>
      <path d="m201.03,67.54c0,0 -7.41,-9.73 0.69,-11.55c7.57,-1.69 7.47,3.13 6.11,10.28l-6.8,1.28z" fill="#991F28" id="svg_187"/>
      <polygon fill="#F47373" id="svg_188" points="173.72196854174035,98.74433692506591 235.572565708826,80.20754570230201 233.7830744605526,56.44689265658735 166.49898922316424,77.59481927794559 "/>
      <path d="m233.78,56.45l15.72,7.37c0,0 0.38,15.18 0,15.18c-0.38,0 -13.92,1.21 -13.92,1.21l-1.8,-23.76z" fill="#FF272C" id="svg_189"/>
      <polygon fill="#991F28" id="svg_190" points="193.59286754903223,92.78859715567341 217.25488742964444,85.69668211563021 212.4480580238196,63.152096998182515 188.03915046381007,70.82569349519645 "/>
      <path d="m247.09,79.19l0,-16.49l-7.61,-3.58l0.89,20.66c2.28,-0.21 4.87,-0.43 6.72,-0.59z" fill="#991F28" id="svg_191"/>
     </g>
     <path d="m228.26,117.65c-2.08,-4.79 -8.42,-3.1 -14.97,-0.66c-6.1,2.29 -8.59,8.93 -4.56,14.59l3.38,4.71l6.35,-5.31c0,0 13.17,-5.58 9.79,-13.34z" id="svg_192"/>
     <path d="m231.42,121.09c-0.11,-0.05 -0.21,-0.08 -0.31,-0.13c-10.51,-4.14 -26.52,6.39 -25.76,18.46c0.78,12.06 9.73,7.88 10.2,8.61l16.83,-10.08c6.25,-3.74 5.67,-14.09 -0.96,-16.86z" fill="#FFFFFF" id="svg_193"/>
     <path d="m236.23,137.15c-2.33,-6.23 -9.04,-8.76 -14.22,-5.34c-2.01,1.33 -4.16,3.24 -6.37,5.99c-5.9,7.33 8.54,71.89 32.31,87.57c0,0 9.76,-31.82 15.25,-46.58c0,0 -18.8,-19.77 -26.98,-41.64z" fill="#FF272C" id="svg_194"/>
     <ellipse cx="321.89" cy="139.06" fill="#F4BFA5" id="svg_195" rx="51.32" ry="39.29"/>
     <path d="m270.57,135.2c0,0 18.09,28.36 51.32,10.82c0,0 33.38,12.54 50.93,-16.14c0,0 35.29,28.67 0.4,74.63c-30.53,40.17 -67.65,33.13 -67.65,33.13s11.09,-11.14 -4.19,-14.21c-15.28,-3.05 -43.39,-15.31 -47.83,-41.2c-4.43,-25.9 17.02,-47.03 17.02,-47.03z" fill="#FFFFFF" id="svg_196"/>
     <g id="svg_197">
      <path d="m307.45,158.46c0,0 13.83,1.68 27.61,-3.72c0,0 5.8,22.2 -13.27,22.18c-20.1,-0.02 -14.34,-18.46 -14.34,-18.46z" id="svg_198"/>
      <path d="m315.51,176.14c1.75,0.5 3.82,0.77 6.28,0.78c11.9,0 14.12,-8.63 14.1,-15.12c-15.36,-1.53 -19.18,9.16 -20.38,14.33z" fill="#FF272C" id="svg_199"/>
     </g>
     <path d="m404.58,58.97c0,7.48 -4.23,13.54 -10.84,13.54c-6.62,0 -11.98,-6.06 -11.98,-13.54c0,-7.46 4.57,-12.24 12.35,-12.24c4.95,0 10.47,4.78 10.47,12.24z" fill="#FFFFFF" id="svg_200"/>
     <path d="m313.27,93.47c0,0 -12.93,3.58 -10.02,15.04c2.91,11.44 17.1,8.01 17.1,8.01s-4.17,-3 -3.92,-7.88c0,0 3.92,8.17 12.92,4.59c0,0 -3.79,-1.29 -4.3,-6.58c0,0 0.79,0.59 3.92,2c1.77,0.8 3.71,3.44 3.71,3.44s5.67,-24.75 -19.41,-18.6z" fill="#FFFFFF" id="svg_201"/>
     <path d="m340.2,270.05c-0.45,-5.5 -4.47,-9.75 -9.35,-9.97c-7.96,-0.34 -20.19,-0.5 -30.16,0.94c-4.48,0.64 -8.01,4.68 -8.47,9.76c-0.45,4.89 -0.71,11.57 0.01,18.97c0.48,4.86 3.73,8.77 7.98,9.62c7.91,1.6 21.33,3.34 33.13,0.13c4.27,-1.15 7.31,-5.42 7.44,-10.37c0.13,-4.65 0.07,-11.17 -0.58,-19.08zm-5.22,18.87c-0.04,2.01 -1.29,3.74 -3,4.2c-3.95,1.09 -8.5,1.63 -13.52,1.63c0,0 0,0 0,0c-6.76,0 -13.1,-0.99 -17.23,-1.84c-1.71,-0.34 -3.04,-1.93 -3.23,-3.88c-0.69,-7.11 -0.4,-13.47 -0.01,-17.56c0.2,-2.06 1.6,-3.69 3.44,-3.95c5.12,-0.75 11.47,-1.12 18.86,-1.12c3.32,0 6.8,0.08 10.35,0.22c1.98,0.08 3.61,1.82 3.79,4.03c0.65,7.89 0.66,14.3 0.55,18.27z" fill="#F9B76E" id="svg_202"/>
     <path d="m335.73,277.59c-3.58,-0.22 -7.84,-0.06 -10.55,0.1c-1.53,0.08 -2.72,1.5 -2.72,3.23l0,0.22c0,1.71 1.19,3.13 2.69,3.23c4.2,0.29 8.22,-0.03 10.72,-0.34c1.44,-0.18 2.55,-1.55 2.55,-3.21c0.01,-1.71 -1.17,-3.13 -2.69,-3.23z" fill="#F9B76E" id="svg_203"/>
     <path d="m403.73,64.44c-3.25,2.35 -7.23,3.44 -11.05,2.73c-4.07,-0.74 -8.19,-3.84 -9.55,-8.37c-0.42,-1.39 -0.34,-3.36 -0.35,-5.31c-0.66,1.6 -1.02,3.44 -1.02,5.48c0,7.48 5.36,13.54 11.98,13.54c4.88,0 8.46,-3.32 9.99,-8.07z" fill="#E5E5E5" id="svg_204"/>
     <g id="svg_205">
      <g id="svg_206">
       <g id="svg_207">
        <path d="m374.39,141.16c2.15,1.85 3.48,4.86 3.55,7.89c0.03,1.04 1.44,1.04 1.41,0c-0.1,-3.66 -1.68,-7.06 -4.26,-9.27c-0.3,-0.27 -0.79,-0.06 -0.96,0.29c-0.21,0.42 -0.06,0.83 0.25,1.09l0,0z" fill="#E5E5E5" id="svg_208"/>
       </g>
      </g>
      <g id="svg_209">
       <g id="svg_210">
        <path d="m379.14,158.11c0.35,4.43 0.13,8.88 -0.69,13.23c-0.18,1.01 1.19,1.44 1.37,0.43c0.83,-4.49 1.09,-9.09 0.74,-13.66c-0.08,-1.02 -1.5,-1.04 -1.41,0l0,0z" fill="#E5E5E5" id="svg_211"/>
       </g>
      </g>
      <g id="svg_212">
       <g id="svg_213">
        <path d="m376.6,180.08c-0.38,3.88 -1.63,7.61 -3.55,10.85c-0.5,0.86 0.72,1.66 1.23,0.81c2.07,-3.5 3.32,-7.49 3.73,-11.67c0.04,-0.43 -0.35,-0.8 -0.71,-0.8c-0.41,0 -0.66,0.37 -0.71,0.8l0,0z" fill="#E5E5E5" id="svg_214"/>
       </g>
      </g>
      <g id="svg_215">
       <g id="svg_216">
        <path d="m366.54,199.71c-1.46,3.31 -3.32,6.36 -5.56,9.06c-0.62,0.75 0.37,1.89 0.99,1.13c2.32,-2.8 4.27,-5.96 5.79,-9.38c0.41,-0.93 -0.81,-1.73 -1.22,-0.81l0,0z" fill="#E5E5E5" id="svg_217"/>
       </g>
      </g>
      <g id="svg_218">
       <g id="svg_219">
        <path d="m354.97,214.14c-1.99,3.66 -5.64,5.53 -8.97,7.25c-0.35,0.18 -0.44,0.74 -0.25,1.09c0.2,0.42 0.62,0.46 0.96,0.29c3.58,-1.84 7.34,-3.92 9.48,-7.83c0.48,-0.88 -0.75,-1.68 -1.22,-0.8l0,0z" fill="#E5E5E5" id="svg_220"/>
       </g>
      </g>
      <g id="svg_221">
       <g id="svg_222">
        <path d="m338.05,222.89c-2.46,1.6 -4.99,3.05 -7.6,4.35c-0.35,0.16 -0.44,0.75 -0.25,1.09c0.21,0.4 0.61,0.46 0.96,0.29c2.6,-1.29 5.14,-2.73 7.6,-4.33c0.79,-0.53 0.07,-1.9 -0.71,-1.39l0,0z" fill="#E5E5E5" id="svg_223"/>
       </g>
      </g>
      <g id="svg_224">
       <g id="svg_225">
        <path d="m372.82,148.76c0.65,3.05 0.81,6.2 0.48,9.33c-0.04,0.43 0.35,0.8 0.71,0.8c0.42,0 0.66,-0.37 0.71,-0.8c0.34,-3.26 0.16,-6.57 -0.52,-9.76c-0.21,-0.99 -1.58,-0.58 -1.37,0.43l0,0z" fill="#E5E5E5" id="svg_226"/>
       </g>
      </g>
      <g id="svg_227">
       <g id="svg_228">
        <path d="m372.25,168.85c0.23,3.42 -0.17,6.84 -1.17,10.07c-0.31,0.97 1.06,1.39 1.36,0.43c1.05,-3.36 1.47,-6.95 1.23,-10.5c-0.07,-1.02 -1.49,-1.02 -1.41,0l0,0z" fill="#E5E5E5" id="svg_229"/>
       </g>
      </g>
      <g id="svg_230">
       <g id="svg_231">
        <path d="m369.1,184.53c-1.23,3.68 -3.06,7.1 -5.33,10.07c-0.59,0.77 0.4,1.9 0.99,1.12c2.46,-3.18 4.39,-6.81 5.7,-10.75c0.33,-0.96 -1.05,-1.39 -1.36,-0.43l0,0z" fill="#E5E5E5" id="svg_232"/>
       </g>
      </g>
      <g id="svg_233">
       <g id="svg_234">
        <path d="m359.4,199.47c-1.29,2.22 -2.84,4.23 -4.61,5.98c-0.28,0.29 -0.25,0.85 0,1.13c0.28,0.32 0.71,0.29 1,0c1.85,-1.84 3.48,-3.98 4.82,-6.31c0.21,-0.37 0.07,-0.88 -0.25,-1.09c-0.34,-0.24 -0.76,-0.08 -0.96,0.29l0,0z" fill="#E5E5E5" id="svg_235"/>
       </g>
      </g>
      <g id="svg_236">
       <g id="svg_237">
        <path d="m347.5,210.32c-1.44,0.4 -2.89,0.81 -4.33,1.21c-0.35,0.11 -0.61,0.59 -0.5,0.99c0.13,0.42 0.48,0.67 0.88,0.56c1.44,-0.42 2.87,-0.81 4.31,-1.23c0.37,-0.1 0.61,-0.58 0.5,-0.97c-0.11,-0.43 -0.48,-0.67 -0.86,-0.56l0,0z" fill="#E5E5E5" id="svg_238"/>
       </g>
      </g>
     </g>
     <path d="m324.57,249.95c-0.31,3.99 -2.94,6.98 -6.55,7.25c-4.03,0.3 -6.56,-4.06 -6.56,-7.25c0,-4.01 2.94,-7.25 6.56,-7.25c3.62,0 6.85,3.44 6.55,7.25z" fill="#FFFFFF" id="svg_239"/>
     <g id="svg_240">
      <g id="svg_241">
       <path d="m307.03,118.26c-1.63,-3.71 -5.5,-4.04 -8.74,-3.61c-2.31,0.32 -4.68,1.05 -6.58,2.6c-1.64,1.36 -3.52,3.28 -3.14,5.8c0.07,0.46 0.23,0.94 0.57,1.21c0.69,0.58 1.63,0.05 2.38,-0.42c2.56,-1.61 5.5,-2.59 8.43,-2.4c1.53,0.1 3.01,0.5 4.53,0.69c0.58,0.08 1.2,0.11 1.74,-0.16c1.15,-0.61 1.39,-2.44 0.82,-3.72z" fill="#FFFFFF" id="svg_242"/>
      </g>
     </g>
     <g id="svg_243">
      <g id="svg_244">
       <g id="svg_245">
        <path d="m303.41,130.15c0.54,0.86 0.82,1.84 0.71,2.89c-0.08,0.64 -0.37,1.34 -0.96,1.49c-0.48,0.11 -0.93,-0.18 -1.34,-0.45c-1.39,-0.88 -2.91,-1.52 -4.5,-1.9c-1.58,-0.38 -3.28,-0.06 -4.8,-0.45c-0.11,-0.03 -0.21,-0.06 -0.28,-0.14c-0.14,-0.16 -0.08,-0.4 -0.01,-0.61c0.93,-2.48 3.82,-4.15 6.28,-3.88c1.81,0.19 3.85,1.37 4.91,3.05z" id="svg_246"/>
       </g>
      </g>
     </g>
     <g id="svg_247">
      <g id="svg_248">
       <path d="m331.97,118.26c1.64,-3.71 5.5,-4.04 8.74,-3.61c2.32,0.32 4.68,1.05 6.59,2.6c1.64,1.36 3.52,3.28 3.14,5.8c-0.07,0.46 -0.24,0.94 -0.57,1.21c-0.69,0.58 -1.64,0.05 -2.38,-0.42c-2.57,-1.61 -5.5,-2.59 -8.45,-2.4c-1.51,0.1 -3,0.5 -4.51,0.69c-0.59,0.08 -1.2,0.11 -1.74,-0.16c-1.15,-0.61 -1.39,-2.44 -0.83,-3.72z" fill="#FFFFFF" id="svg_249"/>
      </g>
     </g>
     <g id="svg_250">
      <g id="svg_251">
       <g id="svg_252">
        <path d="m336.61,130.15c-0.54,0.86 -0.82,1.84 -0.69,2.89c0.07,0.64 0.37,1.34 0.96,1.49c0.47,0.11 0.93,-0.18 1.34,-0.45c1.39,-0.88 2.9,-1.52 4.48,-1.9c1.58,-0.38 3.28,-0.06 4.81,-0.45c0.1,-0.03 0.21,-0.06 0.28,-0.14c0.13,-0.16 0.08,-0.4 0,-0.61c-0.93,-2.48 -3.82,-4.15 -6.27,-3.88c-1.82,0.19 -3.86,1.37 -4.92,3.05z" id="svg_253"/>
       </g>
      </g>
     </g>
     <g id="svg_254">
      <ellipse cx="320.58" cy="144.38" fill="#F47373" id="svg_255" rx="12.5" ry="11.22"/>
      <path d="m297.99,145.14c0,3.07 -3.72,5.55 -8.32,5.55c-4.6,0 -8.32,-2.48 -8.32,-5.55c0,-3.05 3.72,-5.53 8.32,-5.53c4.6,0 8.32,2.48 8.32,5.53z" fill="#F47373" id="svg_256"/>
      <path d="m360.23,145.14c0,3.07 -3.73,5.55 -8.32,5.55c-4.6,0 -8.32,-2.48 -8.32,-5.55c0,-3.05 3.72,-5.53 8.32,-5.53c4.6,0 8.32,2.48 8.32,5.53z" fill="#F47373" id="svg_257"/>
     </g>
     <path d="m302.83,102.58c0,0 14.91,-4.75 30.24,-2.08" fill="none" id="svg_258" stroke="#E5E5E5" stroke-linecap="round" stroke-linejoin="round" stroke-miterlimit="10"/>
     <path d="m389.43,202.17c1.4,6.44 2.66,12.91 3.75,19.42c0,-0.08 -0.03,-0.16 -0.03,-0.24" fill="none" id="svg_259" stroke="#991F28" stroke-linecap="round" stroke-linejoin="round" stroke-miterlimit="10"/>
     <path d="m246.35,224.7c1.26,-12.21 4.09,-21.11 8.93,-32.14" fill="none" id="svg_260" stroke="#991F28" stroke-linecap="round" stroke-linejoin="round" stroke-miterlimit="10"/>
    </g>
   </g>
  </g>
 </g>
</svg>